<?xml version="1.0" standalone="no"?>
<!DOCTYPE svg PUBLIC "-//W3C//DTD SVG 20010904//EN"
 "http://www.w3.org/TR/2001/REC-SVG-20010904/DTD/svg10.dtd">
<svg version="1.0" xmlns="http://www.w3.org/2000/svg"
 width="512.000000pt" height="512.000000pt" viewBox="0 0 512.000000 512.000000"
 preserveAspectRatio="xMidYMid meet">
<metadata>
Created by potrace 1.14, written by Peter Selinger 2001-2017
</metadata>
<g transform="translate(0.000000,512.000000) scale(0.100000,-0.100000)"
fill="#000000" stroke="none">
<path d="M2378 5115 c-2 -1 -38 -5 -80 -9 -43 -4 -83 -8 -90 -11 -7 -2 -31 -6
-53 -9 -77 -11 -111 -18 -210 -42 -101 -25 -282 -81 -300 -93 -5 -4 -28 -13
-50 -20 -65 -22 -282 -133 -385 -196 -94 -59 -254 -176 -320 -236 -152 -136
-270 -262 -371 -394 -85 -112 -147 -210 -241 -385 -78 -146 -186 -443 -212
-583 -3 -15 -7 -35 -10 -45 -4 -15 -8 -36 -21 -117 -2 -11 -6 -36 -9 -55 -35
-207 -28 -575 15 -810 118 -647 465 -1208 993 -1604 306 -229 725 -412 1060
-462 22 -3 43 -7 46 -9 3 -2 37 -6 75 -10 39 -4 74 -10 79 -13 15 -9 417 -10
496 -1 249 28 383 56 589 125 147 49 179 63 321 134 673 335 1164 948 1344
1675 29 117 37 161 51 270 4 33 10 69 12 80 11 49 9 437 -3 535 -18 153 -21
166 -43 270 -107 495 -346 927 -710 1287 -343 338 -802 584 -1261 677 -113 22
-131 26 -185 31 -27 3 -61 9 -75 12 -25 6 -446 14 -452 8z"/>
</g>
</svg>
